# xmcd
#
# Track frame offsets:
#	150
#	17896
#	35393
#	46983
#	61447
#	73488
#	88320
#	104750
#	122898
#	142652
#	160678
#	175633
#
# Disc length: 2604 seconds
#
# Revision: 1
# Processed by: cddbd v1.5.2PL0 Copyright (c) Steve Scherf et al.
# Submitted via: audiograbber 1.83.01
#
DISCID=a80a2a0c
DTITLE=Riccardo Fogli - 24 Grandi Successi CD1
DYEAR=1900
DGENRE=
TTITLE0=Storie Di Tutti I Giorni
TTITLE1=Tanta Voglia Di Lei
TTITLE2=Pensiero
TTITLE3=Pierre
TTITLE4=Noi Due Nel Mondo E Nell' Anima
TTITLE5=Piccola Katy
TTITLE6=Mondo
TTITLE7=Malinconia
TTITLE8=Che Ne Sai
TTITLE9=Monica
TTITLE10=Ma Quale Amore
TTITLE11=Io Ti Prego Di Ascoltare
EXTD=
EXTT0=
EXTT1=
EXTT2=
EXTT3=
EXTT4=
EXTT5=
EXTT6=
EXTT7=
EXTT8=
EXTT9=
EXTT10=
EXTT11=
PLAYORDER=
